<mxfile host="app.diagrams.net" modified="2020-11-12T17:10:44.130Z" agent="5.0 (Windows)" etag="1LN8qOweixiNzlTiE1-5" version="13.9.3" type="github">
  <diagram id="cK45qSfexXgZFlxzKNXQ" name="Page-1">
    <mxGraphModel dx="785" dy="526" grid="1" gridSize="10" guides="1" tooltips="1" connect="1" arrows="1" fold="1" page="1" pageScale="1" pageWidth="827" pageHeight="1169" math="0" shadow="0">
      <root>
        <mxCell id="0" />
        <mxCell id="1" parent="0" />
        <mxCell id="WnlUqMINKJPaQSwvSYlF-1" value="列表项" style="rounded=0;whiteSpace=wrap;html=1;" vertex="1" parent="1">
          <mxGeometry x="260" y="140" width="120" height="30" as="geometry" />
        </mxCell>
        <mxCell id="WnlUqMINKJPaQSwvSYlF-2" value="学科列表" style="rounded=0;whiteSpace=wrap;html=1;" vertex="1" parent="1">
          <mxGeometry x="260" y="110" width="120" height="30" as="geometry" />
        </mxCell>
        <mxCell id="WnlUqMINKJPaQSwvSYlF-3" value="列表项" style="rounded=0;whiteSpace=wrap;html=1;" vertex="1" parent="1">
          <mxGeometry x="260" y="170" width="120" height="30" as="geometry" />
        </mxCell>
        <mxCell id="WnlUqMINKJPaQSwvSYlF-4" value="教学科目" style="rounded=0;whiteSpace=wrap;html=1;" vertex="1" parent="1">
          <mxGeometry x="460" y="130" width="120" height="30" as="geometry" />
        </mxCell>
        <mxCell id="WnlUqMINKJPaQSwvSYlF-5" value="......." style="rounded=0;whiteSpace=wrap;html=1;" vertex="1" parent="1">
          <mxGeometry x="260" y="290" width="120" height="30" as="geometry" />
        </mxCell>
        <mxCell id="WnlUqMINKJPaQSwvSYlF-6" value="....." style="rounded=0;whiteSpace=wrap;html=1;" vertex="1" parent="1">
          <mxGeometry x="260" y="260" width="120" height="30" as="geometry" />
        </mxCell>
        <mxCell id="WnlUqMINKJPaQSwvSYlF-7" value="......." style="rounded=0;whiteSpace=wrap;html=1;" vertex="1" parent="1">
          <mxGeometry x="260" y="230" width="120" height="30" as="geometry" />
        </mxCell>
        <mxCell id="WnlUqMINKJPaQSwvSYlF-8" value="列表项" style="rounded=0;whiteSpace=wrap;html=1;" vertex="1" parent="1">
          <mxGeometry x="260" y="200" width="120" height="30" as="geometry" />
        </mxCell>
        <mxCell id="WnlUqMINKJPaQSwvSYlF-9" value="对应年级" style="rounded=0;whiteSpace=wrap;html=1;" vertex="1" parent="1">
          <mxGeometry x="460" y="160" width="120" height="30" as="geometry" />
        </mxCell>
        <mxCell id="WnlUqMINKJPaQSwvSYlF-11" value="" style="endArrow=classic;startArrow=classic;html=1;exitX=0;exitY=0.5;exitDx=0;exitDy=0;entryX=0;entryY=0.5;entryDx=0;entryDy=0;" edge="1" parent="1" source="WnlUqMINKJPaQSwvSYlF-9" target="WnlUqMINKJPaQSwvSYlF-4">
          <mxGeometry width="50" height="50" relative="1" as="geometry">
            <mxPoint x="350" y="180" as="sourcePoint" />
            <mxPoint x="400" y="130" as="targetPoint" />
            <Array as="points">
              <mxPoint x="380" y="160" />
            </Array>
          </mxGeometry>
        </mxCell>
      </root>
    </mxGraphModel>
  </diagram>
</mxfile>
